<svg class="main-svg" xmlns="http://www.w3.org/2000/svg" xmlns:xlink="http://www.w3.org/1999/xlink" width="700" height="500" style="" viewBox="0 0 700 500"><rect x="0" y="0" width="700" height="500" style="fill: rgb(255, 255, 255); fill-opacity: 1;"/><defs id="defs-8eb82b"><g class="clips"><clipPath id="clip8eb82bxyplot" class="plotclip"><rect width="540" height="320"/></clipPath><clipPath class="axesclip" id="clip8eb82bx"><rect x="80" y="0" width="540" height="500"/></clipPath><clipPath class="axesclip" id="clip8eb82by"><rect x="0" y="100" width="700" height="320"/></clipPath><clipPath class="axesclip" id="clip8eb82bxy"><rect x="80" y="100" width="540" height="320"/></clipPath></g><g class="gradients"/><g class="patterns"/></defs><g class="bglayer"/><g class="layer-below"><g class="imagelayer"/><g class="shapelayer"/></g><g class="cartesianlayer"><g class="subplot xy"><g class="layer-subplot"><g class="shapelayer"/><g class="imagelayer"/></g><g class="minor-gridlayer"><g class="x"/><g class="y"/></g><g class="gridlayer"><g class="x"/><g class="y"/></g><g class="zerolinelayer"/><path class="xlines-below"/><path class="ylines-below"/><g class="overlines-below"/><g class="xaxislayer-below"/><g class="yaxislayer-below"/><g class="overaxes-below"/><g class="plot" transform="translate(80,100)" clip-path="url(#clip8eb82bxyplot)"><g class="boxlayer mlayer"><g class="trace boxes" style="opacity: 1;"><path class="box" d="M15.76,176.35H45.74M15.76,218.12H45.74V137.53H15.76ZM30.75,218.12V304M30.75,137.53V27.98M23.25,304H38.25M23.25,27.98H38.25" style="vector-effect: none; stroke-width: 2px; stroke: rgb(255, 0, 0); stroke-opacity: 1; fill: rgb(255, 0, 0); fill-opacity: 0.5;"/><path class="box" d="M85.3,186.37H115.29M85.3,215.05H115.29V157.34H85.3ZM100.3,215.05V297.21M100.3,157.34V70.95M92.8,297.21H107.8M92.8,70.95H107.8" style="vector-effect: none; stroke-width: 2px; stroke: rgb(255, 0, 0); stroke-opacity: 1; fill: rgb(255, 0, 0); fill-opacity: 0.5;"/><path class="box" d="M154.85,187.98H184.84M154.85,211.94H184.84V165.9H154.85ZM169.85,211.94V279.97M169.85,165.9V96.93M162.35,279.97H177.35M162.35,96.93H177.35" style="vector-effect: none; stroke-width: 2px; stroke: rgb(255, 0, 0); stroke-opacity: 1; fill: rgb(255, 0, 0); fill-opacity: 0.5;"/><path class="box" d="M224.4,189.43H254.39M224.4,209.48H254.39V171.13H224.4ZM239.4,209.48V265.39M239.4,171.13V114.16M231.9,265.39H246.9M231.9,114.16H246.9" style="vector-effect: none; stroke-width: 2px; stroke: rgb(255, 0, 0); stroke-opacity: 1; fill: rgb(255, 0, 0); fill-opacity: 0.5;"/><path class="box" d="M293.95,191.11H323.94M293.95,210.61H323.94V172.38H293.95ZM308.95,210.61V261.71M308.95,172.38V122.87M301.45,261.71H316.45M301.45,122.87H316.45" style="vector-effect: none; stroke-width: 2px; stroke: rgb(255, 0, 0); stroke-opacity: 1; fill: rgb(255, 0, 0); fill-opacity: 0.5;"/><path class="box" d="M363.5,191.13H393.49M363.5,209.75H393.49V173.14H363.5ZM378.5,209.75V261.25M378.5,173.14V120.29M371,261.25H385.99M371,120.29H385.99" style="vector-effect: none; stroke-width: 2px; stroke: rgb(255, 0, 0); stroke-opacity: 1; fill: rgb(255, 0, 0); fill-opacity: 0.5;"/><path class="box" d="M433.05,190.15H463.04M433.05,205.27H463.04V174.63H433.05ZM448.05,205.27V248.7M448.05,174.63V130.82M440.55,248.7H455.54M440.55,130.82H455.54" style="vector-effect: none; stroke-width: 2px; stroke: rgb(255, 0, 0); stroke-opacity: 1; fill: rgb(255, 0, 0); fill-opacity: 0.5;"/><path class="box" d="M494.26,192.73H524.24M494.26,206.93H524.24V178.39H494.26ZM509.25,206.93V249.38M509.25,178.39V138.45M501.75,249.38H516.75M501.75,138.45H516.75" style="vector-effect: none; stroke-width: 2px; stroke: rgb(255, 0, 0); stroke-opacity: 1; fill: rgb(255, 0, 0); fill-opacity: 0.5;"/><g class="points"><path class="point" transform="translate(30.75,16)" d="M3,0A3,3 0 1,1 0,-3A3,3 0 0,1 3,0Z" style="opacity: 1; stroke-width: 0px; fill: rgb(255, 0, 0); fill-opacity: 1;"/></g><g class="points"><path class="point" transform="translate(100.3,65.47)" d="M3,0A3,3 0 1,1 0,-3A3,3 0 0,1 3,0Z" style="opacity: 1; stroke-width: 0px; fill: rgb(255, 0, 0); fill-opacity: 1;"/><path class="point" transform="translate(100.3,52.21)" d="M3,0A3,3 0 1,1 0,-3A3,3 0 0,1 3,0Z" style="opacity: 1; stroke-width: 0px; fill: rgb(255, 0, 0); fill-opacity: 1;"/><path class="point" transform="translate(100.3,40.84)" d="M3,0A3,3 0 1,1 0,-3A3,3 0 0,1 3,0Z" style="opacity: 1; stroke-width: 0px; fill: rgb(255, 0, 0); fill-opacity: 1;"/></g><g class="points"><path class="point" transform="translate(169.85,286.11)" d="M3,0A3,3 0 1,1 0,-3A3,3 0 0,1 3,0Z" style="opacity: 1; stroke-width: 0px; fill: rgb(255, 0, 0); fill-opacity: 1;"/><path class="point" transform="translate(169.85,284.82)" d="M3,0A3,3 0 1,1 0,-3A3,3 0 0,1 3,0Z" style="opacity: 1; stroke-width: 0px; fill: rgb(255, 0, 0); fill-opacity: 1;"/><path class="point" transform="translate(169.85,284.5)" d="M3,0A3,3 0 1,1 0,-3A3,3 0 0,1 3,0Z" style="opacity: 1; stroke-width: 0px; fill: rgb(255, 0, 0); fill-opacity: 1;"/><path class="point" transform="translate(169.85,283.93)" d="M3,0A3,3 0 1,1 0,-3A3,3 0 0,1 3,0Z" style="opacity: 1; stroke-width: 0px; fill: rgb(255, 0, 0); fill-opacity: 1;"/><path class="point" transform="translate(169.85,91.19)" d="M3,0A3,3 0 1,1 0,-3A3,3 0 0,1 3,0Z" style="opacity: 1; stroke-width: 0px; fill: rgb(255, 0, 0); fill-opacity: 1;"/><path class="point" transform="translate(169.85,73.58)" d="M3,0A3,3 0 1,1 0,-3A3,3 0 0,1 3,0Z" style="opacity: 1; stroke-width: 0px; fill: rgb(255, 0, 0); fill-opacity: 1;"/></g><g class="points"><path class="point" transform="translate(239.4,111.91)" d="M3,0A3,3 0 1,1 0,-3A3,3 0 0,1 3,0Z" style="opacity: 1; stroke-width: 0px; fill: rgb(255, 0, 0); fill-opacity: 1;"/><path class="point" transform="translate(239.4,109.83)" d="M3,0A3,3 0 1,1 0,-3A3,3 0 0,1 3,0Z" style="opacity: 1; stroke-width: 0px; fill: rgb(255, 0, 0); fill-opacity: 1;"/><path class="point" transform="translate(239.4,103.3)" d="M3,0A3,3 0 1,1 0,-3A3,3 0 0,1 3,0Z" style="opacity: 1; stroke-width: 0px; fill: rgb(255, 0, 0); fill-opacity: 1;"/><path class="point" transform="translate(239.4,102.49)" d="M3,0A3,3 0 1,1 0,-3A3,3 0 0,1 3,0Z" style="opacity: 1; stroke-width: 0px; fill: rgb(255, 0, 0); fill-opacity: 1;"/><path class="point" transform="translate(239.4,97.67)" d="M3,0A3,3 0 1,1 0,-3A3,3 0 0,1 3,0Z" style="opacity: 1; stroke-width: 0px; fill: rgb(255, 0, 0); fill-opacity: 1;"/><path class="point" transform="translate(239.4,67.51)" d="M3,0A3,3 0 1,1 0,-3A3,3 0 0,1 3,0Z" style="opacity: 1; stroke-width: 0px; fill: rgb(255, 0, 0); fill-opacity: 1;"/></g><g class="points"><path class="point" transform="translate(308.95,273.29)" d="M3,0A3,3 0 1,1 0,-3A3,3 0 0,1 3,0Z" style="opacity: 1; stroke-width: 0px; fill: rgb(255, 0, 0); fill-opacity: 1;"/><path class="point" transform="translate(308.95,268.7)" d="M3,0A3,3 0 1,1 0,-3A3,3 0 0,1 3,0Z" style="opacity: 1; stroke-width: 0px; fill: rgb(255, 0, 0); fill-opacity: 1;"/><path class="point" transform="translate(308.95,114.31)" d="M3,0A3,3 0 1,1 0,-3A3,3 0 0,1 3,0Z" style="opacity: 1; stroke-width: 0px; fill: rgb(255, 0, 0); fill-opacity: 1;"/><path class="point" transform="translate(308.95,114.1)" d="M3,0A3,3 0 1,1 0,-3A3,3 0 0,1 3,0Z" style="opacity: 1; stroke-width: 0px; fill: rgb(255, 0, 0); fill-opacity: 1;"/><path class="point" transform="translate(308.95,107.56)" d="M3,0A3,3 0 1,1 0,-3A3,3 0 0,1 3,0Z" style="opacity: 1; stroke-width: 0px; fill: rgb(255, 0, 0); fill-opacity: 1;"/><path class="point" transform="translate(308.95,106.49)" d="M3,0A3,3 0 1,1 0,-3A3,3 0 0,1 3,0Z" style="opacity: 1; stroke-width: 0px; fill: rgb(255, 0, 0); fill-opacity: 1;"/></g><g class="points"><path class="point" transform="translate(378.5,274.29)" d="M3,0A3,3 0 1,1 0,-3A3,3 0 0,1 3,0Z" style="opacity: 1; stroke-width: 0px; fill: rgb(255, 0, 0); fill-opacity: 1;"/><path class="point" transform="translate(378.5,269.76)" d="M3,0A3,3 0 1,1 0,-3A3,3 0 0,1 3,0Z" style="opacity: 1; stroke-width: 0px; fill: rgb(255, 0, 0); fill-opacity: 1;"/><path class="point" transform="translate(378.5,266.11)" d="M3,0A3,3 0 1,1 0,-3A3,3 0 0,1 3,0Z" style="opacity: 1; stroke-width: 0px; fill: rgb(255, 0, 0); fill-opacity: 1;"/></g><g class="points"><path class="point" transform="translate(448.05,270.02)" d="M3,0A3,3 0 1,1 0,-3A3,3 0 0,1 3,0Z" style="opacity: 1; stroke-width: 0px; fill: rgb(255, 0, 0); fill-opacity: 1;"/><path class="point" transform="translate(448.05,267.96)" d="M3,0A3,3 0 1,1 0,-3A3,3 0 0,1 3,0Z" style="opacity: 1; stroke-width: 0px; fill: rgb(255, 0, 0); fill-opacity: 1;"/><path class="point" transform="translate(448.05,258.68)" d="M3,0A3,3 0 1,1 0,-3A3,3 0 0,1 3,0Z" style="opacity: 1; stroke-width: 0px; fill: rgb(255, 0, 0); fill-opacity: 1;"/><path class="point" transform="translate(448.05,257.93)" d="M3,0A3,3 0 1,1 0,-3A3,3 0 0,1 3,0Z" style="opacity: 1; stroke-width: 0px; fill: rgb(255, 0, 0); fill-opacity: 1;"/><path class="point" transform="translate(448.05,257.72)" d="M3,0A3,3 0 1,1 0,-3A3,3 0 0,1 3,0Z" style="opacity: 1; stroke-width: 0px; fill: rgb(255, 0, 0); fill-opacity: 1;"/><path class="point" transform="translate(448.05,256.27)" d="M3,0A3,3 0 1,1 0,-3A3,3 0 0,1 3,0Z" style="opacity: 1; stroke-width: 0px; fill: rgb(255, 0, 0); fill-opacity: 1;"/><path class="point" transform="translate(448.05,255.42)" d="M3,0A3,3 0 1,1 0,-3A3,3 0 0,1 3,0Z" style="opacity: 1; stroke-width: 0px; fill: rgb(255, 0, 0); fill-opacity: 1;"/><path class="point" transform="translate(448.05,125.79)" d="M3,0A3,3 0 1,1 0,-3A3,3 0 0,1 3,0Z" style="opacity: 1; stroke-width: 0px; fill: rgb(255, 0, 0); fill-opacity: 1;"/></g><g class="points"><path class="point" transform="translate(509.25,264.14)" d="M3,0A3,3 0 1,1 0,-3A3,3 0 0,1 3,0Z" style="opacity: 1; stroke-width: 0px; fill: rgb(255, 0, 0); fill-opacity: 1;"/><path class="point" transform="translate(509.25,253.47)" d="M3,0A3,3 0 1,1 0,-3A3,3 0 0,1 3,0Z" style="opacity: 1; stroke-width: 0px; fill: rgb(255, 0, 0); fill-opacity: 1;"/><path class="point" transform="translate(509.25,250.55)" d="M3,0A3,3 0 1,1 0,-3A3,3 0 0,1 3,0Z" style="opacity: 1; stroke-width: 0px; fill: rgb(255, 0, 0); fill-opacity: 1;"/><path class="point" transform="translate(509.25,135.59)" d="M3,0A3,3 0 1,1 0,-3A3,3 0 0,1 3,0Z" style="opacity: 1; stroke-width: 0px; fill: rgb(255, 0, 0); fill-opacity: 1;"/><path class="point" transform="translate(509.25,130.76)" d="M3,0A3,3 0 1,1 0,-3A3,3 0 0,1 3,0Z" style="opacity: 1; stroke-width: 0px; fill: rgb(255, 0, 0); fill-opacity: 1;"/><path class="point" transform="translate(509.25,129.9)" d="M3,0A3,3 0 1,1 0,-3A3,3 0 0,1 3,0Z" style="opacity: 1; stroke-width: 0px; fill: rgb(255, 0, 0); fill-opacity: 1;"/><path class="point" transform="translate(509.25,129.63)" d="M3,0A3,3 0 1,1 0,-3A3,3 0 0,1 3,0Z" style="opacity: 1; stroke-width: 0px; fill: rgb(255, 0, 0); fill-opacity: 1;"/><path class="point" transform="translate(509.25,128.75)" d="M3,0A3,3 0 1,1 0,-3A3,3 0 0,1 3,0Z" style="opacity: 1; stroke-width: 0px; fill: rgb(255, 0, 0); fill-opacity: 1;"/><path class="point" transform="translate(509.25,124.47)" d="M3,0A3,3 0 1,1 0,-3A3,3 0 0,1 3,0Z" style="opacity: 1; stroke-width: 0px; fill: rgb(255, 0, 0); fill-opacity: 1;"/><path class="point" transform="translate(509.25,116.54)" d="M3,0A3,3 0 1,1 0,-3A3,3 0 0,1 3,0Z" style="opacity: 1; stroke-width: 0px; fill: rgb(255, 0, 0); fill-opacity: 1;"/><path class="point" transform="translate(509.25,112.56)" d="M3,0A3,3 0 1,1 0,-3A3,3 0 0,1 3,0Z" style="opacity: 1; stroke-width: 0px; fill: rgb(255, 0, 0); fill-opacity: 1;"/></g></g></g><g class="scatterlayer mlayer"><g class="trace scatter tracef6e9b8" style="stroke-miterlimit: 2; opacity: 1;"><g class="fills"/><g class="errorbars"/><g class="lines"><path class="js-line" d="M30.75,177.08L100.3,186.2L169.85,188.71L378.5,191.41L448.05,190.91L509.25,192.87" style="vector-effect: none; fill: none; stroke: rgb(255, 0, 0); stroke-opacity: 1; stroke-width: 2px; opacity: 1;"/></g><g class="points"><path class="point" transform="translate(30.75,177.08)" d="M3,0A3,3 0 1,1 0,-3A3,3 0 0,1 3,0Z" style="opacity: 1; stroke-width: 0px; fill: rgb(255, 0, 0); fill-opacity: 1;"/><path class="point" transform="translate(100.3,186.2)" d="M3,0A3,3 0 1,1 0,-3A3,3 0 0,1 3,0Z" style="opacity: 1; stroke-width: 0px; fill: rgb(255, 0, 0); fill-opacity: 1;"/><path class="point" transform="translate(169.85,188.71)" d="M3,0A3,3 0 1,1 0,-3A3,3 0 0,1 3,0Z" style="opacity: 1; stroke-width: 0px; fill: rgb(255, 0, 0); fill-opacity: 1;"/><path class="point" transform="translate(239.4,189.71)" d="M3,0A3,3 0 1,1 0,-3A3,3 0 0,1 3,0Z" style="opacity: 1; stroke-width: 0px; fill: rgb(255, 0, 0); fill-opacity: 1;"/><path class="point" transform="translate(308.95,190.95)" d="M3,0A3,3 0 1,1 0,-3A3,3 0 0,1 3,0Z" style="opacity: 1; stroke-width: 0px; fill: rgb(255, 0, 0); fill-opacity: 1;"/><path class="point" transform="translate(378.5,191.41)" d="M3,0A3,3 0 1,1 0,-3A3,3 0 0,1 3,0Z" style="opacity: 1; stroke-width: 0px; fill: rgb(255, 0, 0); fill-opacity: 1;"/><path class="point" transform="translate(448.05,190.91)" d="M3,0A3,3 0 1,1 0,-3A3,3 0 0,1 3,0Z" style="opacity: 1; stroke-width: 0px; fill: rgb(255, 0, 0); fill-opacity: 1;"/><path class="point" transform="translate(509.25,192.87)" d="M3,0A3,3 0 1,1 0,-3A3,3 0 0,1 3,0Z" style="opacity: 1; stroke-width: 0px; fill: rgb(255, 0, 0); fill-opacity: 1;"/></g><g class="text"/></g></g></g><g class="overplot"/><path class="xlines-above crisp" d="M78.8,420.6H621.2M78.8,99.4H621.2" style="fill: none; stroke-width: 1.2px; stroke: rgb(0, 0, 0); stroke-opacity: 1;"/><path class="ylines-above crisp" d="M79.4,100V420M620.6,100V420" style="fill: none; stroke-width: 1.2px; stroke: rgb(0, 0, 0); stroke-opacity: 1;"/><g class="overlines-above"/><g class="xaxislayer-above"><path class="xtick ticks crisp" d="M0,421.20000000000005v10" transform="translate(180.3,0)" style="stroke: rgb(68, 68, 68); stroke-opacity: 1; stroke-width: 1.2px;"/><path class="xtick ticks crisp" d="M0,421.20000000000005v10" transform="translate(319.4,0)" style="stroke: rgb(68, 68, 68); stroke-opacity: 1; stroke-width: 1.2px;"/><path class="xtick ticks crisp" d="M0,421.20000000000005v10" transform="translate(458.5,0)" style="stroke: rgb(68, 68, 68); stroke-opacity: 1; stroke-width: 1.2px;"/><path class="xtick ticks crisp" d="M0,421.20000000000005v10" transform="translate(597.6,0)" style="stroke: rgb(68, 68, 68); stroke-opacity: 1; stroke-width: 1.2px;"/><g class="xtick"><text text-anchor="middle" x="0" y="452.8" transform="translate(180.3,0)" style="font-family: Arial; font-size: 18px; fill: rgb(0, 0, 0); fill-opacity: 1; white-space: pre; opacity: 1;">100</text></g><g class="xtick"><text text-anchor="middle" x="0" y="452.8" style="font-family: Arial; font-size: 18px; fill: rgb(0, 0, 0); fill-opacity: 1; white-space: pre; opacity: 1;" transform="translate(319.4,0)">200</text></g><g class="xtick"><text text-anchor="middle" x="0" y="452.8" style="font-family: Arial; font-size: 18px; fill: rgb(0, 0, 0); fill-opacity: 1; white-space: pre; opacity: 1;" transform="translate(458.5,0)">300</text></g><g class="xtick"><text text-anchor="middle" x="0" y="452.8" style="font-family: Arial; font-size: 18px; fill: rgb(0, 0, 0); fill-opacity: 1; white-space: pre; opacity: 1;" transform="translate(597.6,0)">400</text></g></g><g class="yaxislayer-above"><path class="ytick ticks crisp" d="M78.80000000000001,0h-10" transform="translate(0,392.98)" style="stroke: rgb(68, 68, 68); stroke-opacity: 1; stroke-width: 1.2px;"/><path class="ytick ticks crisp" d="M78.80000000000001,0h-10" transform="translate(0,341.61)" style="stroke: rgb(68, 68, 68); stroke-opacity: 1; stroke-width: 1.2px;"/><path class="ytick ticks crisp" d="M78.80000000000001,0h-10" transform="translate(0,290.24)" style="stroke: rgb(68, 68, 68); stroke-opacity: 1; stroke-width: 1.2px;"/><path class="ytick ticks crisp" d="M78.80000000000001,0h-10" transform="translate(0,238.87)" style="stroke: rgb(68, 68, 68); stroke-opacity: 1; stroke-width: 1.2px;"/><path class="ytick ticks crisp" d="M78.80000000000001,0h-10" transform="translate(0,187.5)" style="stroke: rgb(68, 68, 68); stroke-opacity: 1; stroke-width: 1.2px;"/><path class="ytick ticks crisp" d="M78.80000000000001,0h-10" transform="translate(0,136.13)" style="stroke: rgb(68, 68, 68); stroke-opacity: 1; stroke-width: 1.2px;"/><g class="ytick"><text text-anchor="end" x="65.2" y="6.3" transform="translate(0,392.98)" style="font-family: Arial; font-size: 18px; fill: rgb(0, 0, 0); fill-opacity: 1; white-space: pre; opacity: 1;">0.1</text></g><g class="ytick"><text text-anchor="end" x="65.2" y="6.3" style="font-family: Arial; font-size: 18px; fill: rgb(0, 0, 0); fill-opacity: 1; white-space: pre; opacity: 1;" transform="translate(0,341.61)">0.2</text></g><g class="ytick"><text text-anchor="end" x="65.2" y="6.3" style="font-family: Arial; font-size: 18px; fill: rgb(0, 0, 0); fill-opacity: 1; white-space: pre; opacity: 1;" transform="translate(0,290.24)">0.3</text></g><g class="ytick"><text text-anchor="end" x="65.2" y="6.3" style="font-family: Arial; font-size: 18px; fill: rgb(0, 0, 0); fill-opacity: 1; white-space: pre; opacity: 1;" transform="translate(0,238.87)">0.4</text></g><g class="ytick"><text text-anchor="end" x="65.2" y="6.3" style="font-family: Arial; font-size: 18px; fill: rgb(0, 0, 0); fill-opacity: 1; white-space: pre; opacity: 1;" transform="translate(0,187.5)">0.5</text></g><g class="ytick"><text text-anchor="end" x="65.2" y="6.3" style="font-family: Arial; font-size: 18px; fill: rgb(0, 0, 0); fill-opacity: 1; white-space: pre; opacity: 1;" transform="translate(0,136.13)">0.6</text></g></g><g class="overaxes-above"/></g></g><g class="polarlayer"/><g class="smithlayer"/><g class="ternarylayer"/><g class="geolayer"/><g class="funnelarealayer"/><g class="pielayer"/><g class="iciclelayer"/><g class="treemaplayer"/><g class="sunburstlayer"/><g class="glimages"/><defs id="topdefs-8eb82b"><g class="clips"/></defs><g class="layer-above"><g class="imagelayer"/><g class="shapelayer"/></g><g class="infolayer"><g class="g-gtitle"><text class="gtitle" x="35" y="50" text-anchor="start" dy="0em" style="font-family: Arial; font-size: 10px; fill: rgb(0, 0, 0); opacity: 1; font-weight: normal; white-space: pre;">MAGNDATA: d dependency as f(n structs) (connected_TM_octahedra, no_ligand multiplicity_included, absolute_occurrences)</text></g><g class="g-xtitle"><text class="xtitle" x="350" y="485.2125" text-anchor="middle" style="font-family: Arial; font-size: 20px; fill: rgb(0, 0, 0); opacity: 1; font-weight: normal; white-space: pre;">n structures</text></g><g class="g-ytitle" transform="translate(6.228515625,0)"><text class="ytitle" transform="rotate(-90,11.771874999999994,260)" x="11.771874999999994" y="260" text-anchor="middle" style="font-family: Arial; font-size: 20px; fill: rgb(0, 0, 0); opacity: 1; font-weight: normal; white-space: pre;">d</text></g></g></svg>